<svg width="36" height="36" viewBox="0 0 36 36" fill="none" xmlns="http://www.w3.org/2000/svg">
<path d="M0 29.268C0 31.14 0.66 32.724 1.98 34.02C3.3 35.316 4.896 35.976 6.768 36H29.268C31.116 36 32.7 35.34 34.02 34.02C35.34 32.7 36 31.116 36 29.268V6.768C36 4.896 35.34 3.3 34.02 1.98C32.7 0.66 31.116 0 29.268 0H6.768C4.896 0 3.3 0.66 1.98 1.98C0.66 3.3 0 4.896 0 6.768L0 29.268ZM4.5 29.268V6.768C4.5 6.144 4.716 5.616 5.148 5.184C5.58 4.752 6.12 4.524 6.768 4.5H29.268C29.868 4.5 30.396 4.728 30.852 5.184C31.308 5.64 31.524 6.168 31.5 6.768V29.268C31.5 29.892 31.284 30.42 30.852 30.852C30.42 31.284 29.892 31.5 29.268 31.5H6.768C6.144 31.5 5.604 31.284 5.148 30.852C4.692 30.42 4.476 29.892 4.5 29.268ZM9 18C9 18.624 9.216 19.164 9.648 19.62C10.08 20.076 10.62 20.292 11.268 20.268H15.768V24.768C15.768 25.392 15.984 25.92 16.416 26.352C16.848 26.784 17.376 27 18 27C18.624 27 19.152 26.784 19.584 26.352C20.016 25.92 20.244 25.392 20.268 24.768V20.268H24.768C25.368 20.268 25.896 20.052 26.352 19.62C26.808 19.188 27.024 18.648 27 18C26.976 17.352 26.76 16.824 26.352 16.416C25.944 16.008 25.416 15.792 24.768 15.768H20.268V11.268C20.268 10.644 20.04 10.116 19.584 9.684C19.128 9.252 18.6 9.024 18 9C17.4 8.976 16.872 9.204 16.416 9.684C15.96 10.164 15.744 10.692 15.768 11.268V15.768H11.268C10.644 15.768 10.104 15.984 9.648 16.416C9.192 16.848 8.976 17.376 9 18Z" fill="#CA4F0A"/>
</svg>
