<svg width="52" height="52" viewBox="0 0 52 52" fill="none" xmlns="http://www.w3.org/2000/svg">
<path d="M35 23L26 14M26 14L17 23M26 14V38M11.6 50H40.4C43.7603 50 45.4406 50 46.724 49.346C47.8529 48.7709 48.7709 47.8529 49.346 46.724C50 45.4406 50 43.7603 50 40.4V11.6C50 8.2397 50 6.55952 49.346 5.27606C48.7709 4.14707 47.8529 3.22919 46.724 2.65397C45.4406 2 43.7603 2 40.4 2H11.6C8.2397 2 6.55952 2 5.27606 2.65397C4.14707 3.22919 3.22919 4.14707 2.65397 5.27606C2 6.55952 2 8.23967 2 11.6V40.4C2 43.7603 2 45.4406 2.65397 46.724C3.22919 47.8529 4.14707 48.7709 5.27606 49.346C6.55952 50 8.23967 50 11.6 50Z" stroke="#1B7F79" stroke-width="4" stroke-linecap="round" stroke-linejoin="round"/>
</svg>
