<svg width="32" height="32" viewBox="0 0 32 32" fill="none" xmlns="http://www.w3.org/2000/svg">
<path d="M3.55556 0C2.61256 0 1.70819 0.374602 1.0414 1.0414C0.374602 1.70819 0 2.61256 0 3.55556V28.4444C0 29.3874 0.374602 30.2918 1.0414 30.9586C1.70819 31.6254 2.61256 32 3.55556 32H28.4444C29.3874 32 30.2918 31.6254 30.9586 30.9586C31.6254 30.2918 32 29.3874 32 28.4444V3.55556C32 2.61256 31.6254 1.70819 30.9586 1.0414C30.2918 0.374602 29.3874 0 28.4444 0H3.55556ZM24.8889 17.7778H7.11111V14.2222H24.8889V17.7778Z" fill="#CA4F0A"/>
</svg>
