<svg width="32" height="32" viewBox="0 0 32 32" fill="none" xmlns="http://www.w3.org/2000/svg">
<rect width="32" height="32" rx="4" fill="#CA4F0A"/>
<path d="M12.0897 8.57143L8.98931 4.58517C8.70727 4.22254 8.70727 3.6346 8.98931 3.27197C9.27136 2.90934 9.72864 2.90934 10.0107 3.27197L14.344 8.8434C14.6261 9.20603 14.6261 9.79397 14.344 10.1566L10.0107 15.728C9.72864 16.0907 9.27136 16.0907 8.98931 15.728C8.70727 15.3654 8.70727 14.7775 8.98931 14.4148L12.0897 10.4286H6.61111C5.41449 10.4286 4.44444 11.6758 4.44444 13.2143V24.3571C4.44444 25.8956 5.41449 27.1429 6.61111 27.1429H13.8333C14.2322 27.1429 14.5556 27.5586 14.5556 28.0714C14.5556 28.5843 14.2322 29 13.8333 29H6.61111C4.61675 29 3 26.9213 3 24.3571V13.2143C3 10.6501 4.61675 8.57143 6.61111 8.57143H12.0897ZM18.1667 10.4286C17.7678 10.4286 17.4444 10.0128 17.4444 9.5C17.4444 8.98716 17.7678 8.57143 18.1667 8.57143H28.2778C28.6766 8.57143 29 8.98716 29 9.5C29 10.0128 28.6766 10.4286 28.2778 10.4286H18.1667ZM18.1667 19.7143C17.7678 19.7143 17.4444 19.2985 17.4444 18.7857C17.4444 18.2729 17.7678 17.8571 18.1667 17.8571H28.2778C28.6766 17.8571 29 18.2729 29 18.7857C29 19.2985 28.6766 19.7143 28.2778 19.7143H18.1667ZM18.1667 29C17.7678 29 17.4444 28.5843 17.4444 28.0714C17.4444 27.5586 17.7678 27.1429 18.1667 27.1429H28.2778C28.6766 27.1429 29 27.5586 29 28.0714C29 28.5843 28.6766 29 28.2778 29H18.1667Z" fill="#F8F8F8"/>
</svg>
