<svg width="32" height="32" viewBox="0 0 32 32" fill="none" xmlns="http://www.w3.org/2000/svg">
<path d="M31.978 25.2052H22.0103V27.3146H31.978V25.2052Z" fill="#CA4F0A"/>
<path d="M27.8766 20.6095H26.031V32H27.8766V20.6095Z" fill="#CA4F0A"/>
<path fill-rule="evenodd" clip-rule="evenodd" d="M23.8537 18.2151H29.9956C31.2119 15.6071 32 12.629 32 9.26267C32 4.14074 28.3913 0 23.9362 0C20.0902 0 16.8776 3.09752 16.0734 7.23366C15.237 3.09062 12.0103 0 8.14224 0C3.64491 0 0 4.1913 0 9.35689C0 24.2838 16.0935 31.9632 16.0935 31.9632C16.0935 31.9632 17.6717 31.2187 19.8329 29.7251V22.7166H23.8537V18.2151Z" fill="#CA4F0A"/>
</svg>
