<svg width="48" height="48" viewBox="0 0 48 48" fill="none" xmlns="http://www.w3.org/2000/svg">
<rect width="48" height="48" rx="15" fill="#1B7F79"/>
<path d="M20.5395 27.5811C19.5037 27.8951 18.4049 28.0639 17.2666 28.0639C11.0442 28.0639 6 23.0196 6 16.7972C6 15.0578 6.39415 13.4105 7.09801 11.9397L15.2945 20.1362L20.6056 14.8251L12.4092 6.62859C13.88 5.92473 15.5273 5.53058 17.2666 5.53058C23.489 5.53058 28.5333 10.5748 28.5333 16.7972C28.5333 18.4504 28.1772 20.0205 27.5376 21.4348L40.9 34.7973C42.3667 36.2639 42.3667 38.6418 40.9 40.1084L39.639 41.3695C38.1723 42.8361 35.7945 42.8361 34.3278 41.3695L20.5395 27.5811Z" stroke="#F8F8F8" stroke-width="3" stroke-linecap="square"/>
</svg>
