<svg width="48" height="48" viewBox="0 0 48 48" fill="none" xmlns="http://www.w3.org/2000/svg">
<rect width="48" height="48" rx="15" fill="#CA4F0A"/>
<path d="M27.4605 27.5811C28.4963 27.8951 29.5951 28.0639 30.7334 28.0639C36.9558 28.0639 42 23.0196 42 16.7972C42 15.0578 41.6058 13.4105 40.902 11.9397L32.7055 20.1362L27.3944 14.8251L35.5908 6.62859C34.12 5.92473 32.4727 5.53058 30.7334 5.53058C24.511 5.53058 19.4667 10.5748 19.4667 16.7972C19.4667 18.4504 19.8228 20.0205 20.4624 21.4348L7.09997 34.7973C5.63334 36.2639 5.63334 38.6418 7.09997 40.1084L8.36103 41.3695C9.82766 42.8361 12.2055 42.8361 13.6722 41.3695L27.4605 27.5811Z" stroke="#F8F8F8" stroke-width="3" stroke-linecap="square"/>
</svg>
